<svg id="Color" enable-background="new 0 0 24 24" height="512" viewBox="0 0 24 24" width="512" xmlns="http://www.w3.org/2000/svg"><g fill="#90a4ae"><path d="m23.25 7.5h-9.5c-.414 0-.75.336-.75.75s.336.75.75.75h9.5c.414 0 .75-.336.75-.75s-.336-.75-.75-.75z"/><path d="m23.25 10.5h-9.5c-.414 0-.75.336-.75.75s.336.75.75.75h9.5c.414 0 .75-.336.75-.75s-.336-.75-.75-.75z"/><path d="m23.25 13.5h-9.5c-.414 0-.75.336-.75.75s.336.75.75.75h9.5c.414 0 .75-.336.75-.75s-.336-.75-.75-.75z"/><path d="m23.25 16.5h-9.5c-.414 0-.75.336-.75.75s.336.75.75.75h9.5c.414 0 .75-.336.75-.75s-.336-.75-.75-.75z"/><path d="m23.25 19.5h-9.5c-.414 0-.75.336-.75.75s.336.75.75.75h9.5c.414 0 .75-.336.75-.75s-.336-.75-.75-.75z"/></g><path d="m1.75 15h7.5c.965 0 1.75-.785 1.75-1.75v-4c0-.965-.785-1.75-1.75-1.75h-7.5c-.965 0-1.75.785-1.75 1.75v4c0 .965.785 1.75 1.75 1.75z" fill="#cfd8dc"/><path d="m1.75 24h7.5c.965 0 1.75-.785 1.75-1.75v-4c0-.965-.785-1.75-1.75-1.75h-7.5c-.965 0-1.75.785-1.75 1.75v4c0 .965.785 1.75 1.75 1.75z" fill="#cfd8dc"/><path d="m23.25 22.5h-9.5c-.414 0-.75.336-.75.75s.336.75.75.75h9.5c.414 0 .75-.336.75-.75s-.336-.75-.75-.75z" fill="#90a4ae"/><path d="m22.25 0h-12.5c-.965 0-1.75.785-1.75 1.75v2.5c0 .965.785 1.75 1.75 1.75h12.5c.965 0 1.75-.785 1.75-1.75v-2.5c0-.965-.785-1.75-1.75-1.75z" fill="#03a9f4"/><circle cx="3" cy="3" fill="#03a9f4" r="3"/><path d="m5.5 7.5h-3.75c-.965 0-1.75.785-1.75 1.75v4c0 .965.785 1.75 1.75 1.75h3.75z" fill="#b4bcc0"/><path d="m5.5 16.5h-3.75c-.965 0-1.75.785-1.75 1.75v4c0 .965.785 1.75 1.75 1.75h3.75z" fill="#b4bcc0"/><g fill="#7d8f97"><path d="m18.5 7.5h-4.75c-.414 0-.75.336-.75.75s.336.75.75.75h4.75z"/><path d="m18.5 10.5h-4.75c-.414 0-.75.336-.75.75s.336.75.75.75h4.75z"/><path d="m18.5 13.5h-4.75c-.414 0-.75.336-.75.75s.336.75.75.75h4.75z"/><path d="m18.5 16.5h-4.75c-.414 0-.75.336-.75.75s.336.75.75.75h4.75z"/><path d="m18.5 19.5h-4.75c-.414 0-.75.336-.75.75s.336.75.75.75h4.75z"/><path d="m18.5 22.5h-4.75c-.414 0-.75.336-.75.75s.336.75.75.75h4.75z"/></g><path d="m3 0c-1.654 0-3 1.346-3 3s1.346 3 3 3z" fill="#0393d4"/><path d="m16.501 0h-6.751c-.965 0-1.75.785-1.75 1.75v2.5c0 .965.785 1.75 1.75 1.75h6.751z" fill="#0393d4"/></svg>