<?xml version="1.0"?>
<svg xmlns="http://www.w3.org/2000/svg" xmlns:xlink="http://www.w3.org/1999/xlink" xmlns:svgjs="http://svgjs.com/svgjs" version="1.1" width="512" height="512" x="0" y="0" viewBox="0 0 512 512" style="enable-background:new 0 0 512 512" xml:space="preserve" class=""><g>
<path xmlns="http://www.w3.org/2000/svg" style="" d="M507.606,84.394l-80-80C424.793,1.581,420.978,0,417,0H15C6.716,0,0,6.716,0,15v482  c0,8.284,6.716,15,15,15h482c8.284,0,15-6.716,15-15V95C512,91.022,510.419,87.207,507.606,84.394z" fill="#72a3fc" data-original="#72a3fc" class=""/>
<path xmlns="http://www.w3.org/2000/svg" style="" d="M507.606,84.394l-80-80C424.793,1.581,420.978,0,417,0H256v512h241c8.284,0,15-6.716,15-15V95  C512,91.022,510.419,87.207,507.606,84.394z" fill="#2892fc" data-original="#2892fc" class=""/>
<path xmlns="http://www.w3.org/2000/svg" style="" d="M406,242H106c-8.284,0-15,6.716-15,15v255h330V257C421,248.716,414.284,242,406,242z" fill="#f9f9f9" data-original="#f9f9f9" class=""/>
<path xmlns="http://www.w3.org/2000/svg" style="" d="M421,257c0-8.284-6.716-15-15-15H256v270h165V257z" fill="#dfe4ea" data-original="#dfe4ea"/>
<g xmlns="http://www.w3.org/2000/svg">
	<path style="" d="M346,452H166c-8.284,0-15-6.716-15-15s6.716-15,15-15h180c8.284,0,15,6.716,15,15   S354.284,452,346,452z" fill="#fad557" data-original="#fad557"/>
	<path style="" d="M346,332H166c-8.284,0-15-6.716-15-15s6.716-15,15-15h180c8.284,0,15,6.716,15,15   S354.284,332,346,332z" fill="#fad557" data-original="#fad557"/>
	<path style="" d="M346,392H166c-8.284,0-15-6.716-15-15s6.716-15,15-15h180c8.284,0,15,6.716,15,15   S354.284,392,346,392z" fill="#fad557" data-original="#fad557"/>
</g>
<path xmlns="http://www.w3.org/2000/svg" style="" d="M361,0H91v145c0,8.284,6.716,15,15,15h240c8.284,0,15-6.716,15-15V0z" fill="#5458ea" data-original="#5458ea" class=""/>
<path xmlns="http://www.w3.org/2000/svg" style="" d="M256,0v160h90c8.284,0,15-6.716,15-15V0H256z" fill="#3545e3" data-original="#3545e3" class=""/>
<g xmlns="http://www.w3.org/2000/svg">
	<path style="" d="M346,422h-90v30h90c8.284,0,15-6.716,15-15S354.284,422,346,422z" fill="#fcb12b" data-original="#fcb12b" class=""/>
	<path style="" d="M346,302h-90v30h90c8.284,0,15-6.716,15-15S354.284,302,346,302z" fill="#fcb12b" data-original="#fcb12b" class=""/>
	<path style="" d="M346,362h-90v30h90c8.284,0,15-6.716,15-15S354.284,362,346,362z" fill="#fcb12b" data-original="#fcb12b" class=""/>
</g>
<g xmlns="http://www.w3.org/2000/svg">
</g>
<g xmlns="http://www.w3.org/2000/svg">
</g>
<g xmlns="http://www.w3.org/2000/svg">
</g>
<g xmlns="http://www.w3.org/2000/svg">
</g>
<g xmlns="http://www.w3.org/2000/svg">
</g>
<g xmlns="http://www.w3.org/2000/svg">
</g>
<g xmlns="http://www.w3.org/2000/svg">
</g>
<g xmlns="http://www.w3.org/2000/svg">
</g>
<g xmlns="http://www.w3.org/2000/svg">
</g>
<g xmlns="http://www.w3.org/2000/svg">
</g>
<g xmlns="http://www.w3.org/2000/svg">
</g>
<g xmlns="http://www.w3.org/2000/svg">
</g>
<g xmlns="http://www.w3.org/2000/svg">
</g>
<g xmlns="http://www.w3.org/2000/svg">
</g>
<g xmlns="http://www.w3.org/2000/svg">
</g>
</g></svg>
