<?xml version="1.0"?>
<svg xmlns="http://www.w3.org/2000/svg" xmlns:xlink="http://www.w3.org/1999/xlink" xmlns:svgjs="http://svgjs.com/svgjs" version="1.1" width="512" height="512" x="0" y="0" viewBox="0 0 512 512" style="enable-background:new 0 0 512 512" xml:space="preserve" class=""><g><g xmlns="http://www.w3.org/2000/svg"><g><g><path d="m497.927 126.219-244.992-43.496c-7.807-1.388-15.448 2.684-18.572 9.899-4.379 10.113-15.032 15.826-25.903 13.897-10.869-1.929-18.898-10.96-19.527-21.961-.449-7.851-6.219-14.302-14.031-15.688l-73.535-13.056c-4.484-.795-9.011.203-12.745 2.81-3.734 2.608-6.229 6.515-7.025 10.999l-17.243 97.117c-.724 4.078 1.995 7.972 6.073 8.695 4.071.724 7.972-1.995 8.695-6.073l17.243-97.119c.123-.691.527-1.101.845-1.323s.841-.463 1.534-.338l29.913 5.311-28.2 158.842c-2.565-1.514-5.549-2.379-8.72-2.379h-23.798l4.975-28.026c.724-4.079-1.996-7.972-6.074-8.696-4.082-.723-7.972 1.995-8.696 6.074l-5.441 30.648h-35.651c-9.403.001-17.052 7.65-17.052 17.053v189.993c0 9.402 7.649 17.052 17.052 17.052h74.685c7.935 0 14.744-5.344 16.557-12.996 2.541-10.721 12.026-18.208 23.066-18.208 11.044 0 20.533 7.488 23.075 18.21 1.814 7.651 8.623 12.994 16.557 12.994h248.823c9.403 0 17.052-7.649 17.052-17.052v-40.033c0-4.142-3.358-7.5-7.5-7.5s-7.5 3.358-7.5 7.5v40.033c0 1.131-.92 2.052-2.052 2.052h-248.823c-.937 0-1.762-.612-1.961-1.455-4.152-17.516-19.643-29.75-37.67-29.75-18.024 0-33.511 12.233-37.662 29.75-.2.843-1.025 1.455-1.961 1.455h-29.305v-194.097h29.304c.937 0 1.762.612 1.961 1.456 4.154 17.516 19.641 29.749 37.662 29.749 18.025 0 33.515-12.233 37.669-29.749.2-.843 1.025-1.456 1.962-1.456h78.444c4.142 0 7.5-3.358 7.5-7.5s-3.358-7.5-7.5-7.5h-78.444c-7.933 0-14.742 5.343-16.557 12.993-2.543 10.723-12.032 18.211-23.075 18.211-7.782 0-14.779-3.732-19.129-9.684.087-.287.164-.578.218-.881l30.977-174.481 28.853 5.123c.922.164 1.627.911 1.677 1.775 1.027 17.973 14.137 32.725 31.881 35.875 17.748 3.151 35.138-6.187 42.29-22.707.345-.795 1.264-1.251 2.186-1.09l244.992 43.496c1.114.198 1.86 1.266 1.663 2.379l-33.213 187.068c-.123.691-.527 1.101-.845 1.323s-.841.461-1.534.338l-24.509-4.351v-78.336c0-9.403-7.649-17.052-17.052-17.052h-134.983c-4.142 0-7.5 3.358-7.5 7.5s3.358 7.5 7.5 7.5h134.983c1.132 0 2.052.92 2.052 2.052v114.564c0 4.142 3.358 7.5 7.5 7.5s7.5-3.358 7.5-7.5v-20.994l21.887 3.886c1.007.179 2.015.267 3.016.267 3.46 0 6.833-1.054 9.729-3.077 3.734-2.608 6.229-6.515 7.025-10.999l33.213-187.068c1.643-9.255-4.551-18.124-13.809-19.768zm-450.494 315.235h-30.381c-1.131 0-2.052-.92-2.052-2.052v-189.993c0-1.132.92-2.052 2.052-2.052h30.381z" fill="#ababab" data-original="#000000" style=""/><path d="m162.911 211.214c2.778 2.883 6.798 4.236 10.754 3.623l16.527-2.569 14.632 8.101c1.85 1.024 3.905 1.539 5.963 1.539 1.84 0 3.683-.412 5.382-1.238 3.601-1.751 6.131-5.156 6.768-9.109l2.664-16.512 12.226-11.412c2.927-2.732 4.345-6.73 3.792-10.696s-3.009-7.425-6.571-9.253l-14.881-7.636-7.076-15.155c-1.694-3.628-5.059-6.212-9.001-6.912-3.942-.697-7.991.568-10.831 3.391l-11.86 11.792-16.6 2.047c-3.974.49-7.471 2.892-9.354 6.425-1.884 3.533-1.929 7.775-.122 11.347l7.551 14.924-3.183 16.42c-.762 3.932.442 8 3.22 10.883zm22.874-47.472c1.652-.204 3.189-.952 4.37-2.125l10.966-10.903 6.542 14.012c.705 1.508 1.891 2.739 3.372 3.5l13.758 7.06-11.304 10.552c-1.217 1.136-2.021 2.645-2.287 4.288l-2.463 15.267-13.528-7.49c-1.118-.619-2.368-.938-3.633-.938-.384 0-.769.029-1.152.089l-15.281 2.375 2.943-15.181c.317-1.634.081-3.328-.67-4.813l-6.981-13.798z" fill="#ababab" data-original="#000000" style=""/><path d="m282.782 128.858-.131-.023c-4.075-.726-7.975 1.983-8.705 6.06s1.983 7.975 6.06 8.705l.131.023c.447.08.892.119 1.331.119 3.563 0 6.724-2.549 7.374-6.179.73-4.077-1.983-7.975-6.06-8.705z" fill="#ababab" data-original="#000000" style=""/><path d="m314.279 170.449c-4.079-.726-7.973 1.988-8.701 6.066s1.988 7.973 6.066 8.701l.131.023c.446.08.889.118 1.326.118 3.564 0 6.727-2.552 7.375-6.184.728-4.078-1.988-7.973-6.066-8.701z" fill="#ababab" data-original="#000000" style=""/><path d="m307.696 140.565-29.559 20.646c-3.396 2.372-4.226 7.047-1.854 10.443 1.458 2.088 3.788 3.206 6.155 3.206 1.483 0 2.98-.438 4.288-1.352l29.559-20.646c3.396-2.372 4.226-7.047 1.854-10.443-2.373-3.397-7.049-4.226-10.443-1.854z" fill="#ababab" data-original="#000000" style=""/><path d="m345.209 191.175 100.001 17.754c.725.128 1.451.192 2.171.192 2.491 0 4.919-.759 7.003-2.215 2.688-1.878 4.484-4.69 5.058-7.918l4.526-25.495c.573-3.229-.146-6.487-2.023-9.175-1.878-2.688-4.69-4.485-7.918-5.058l-100.002-17.755c-3.229-.573-6.487.146-9.175 2.023-2.688 1.878-4.484 4.69-5.058 7.918l-4.526 25.495c-1.181 6.666 3.278 13.05 9.943 14.234zm8.878-34.423 94.637 16.802-3.574 20.13-94.637-16.802z" fill="#ababab" data-original="#000000" style=""/><path d="m263.195 201.986c-.724 4.078 1.995 7.972 6.073 8.696l66.554 11.816c.443.079.884.117 1.32.117 3.567 0 6.73-2.556 7.375-6.19.724-4.078-1.995-7.972-6.073-8.695l-66.554-11.816c-4.076-.727-7.971 1.993-8.695 6.072z" fill="#ababab" data-original="#000000" style=""/><path d="m177.25 328.627c-1.237-3.808-4.26-6.784-8.087-7.961l-15.986-4.917-9.617-13.685c-2.302-3.276-6.067-5.232-10.07-5.232-4.004 0-7.769 1.956-10.071 5.232l-9.616 13.685-15.986 4.917c-3.827 1.177-6.851 4.153-8.088 7.961s-.541 7.993 1.863 11.194l10.043 13.375-.264 16.723c-.063 4.003 1.833 7.799 5.072 10.152 2.129 1.547 4.671 2.35 7.24 2.35 1.339 0 2.685-.218 3.983-.663l15.824-5.418 15.823 5.418c3.789 1.297 7.984.666 11.222-1.687 3.239-2.353 5.136-6.148 5.073-10.152l-.264-16.723 10.043-13.374c2.403-3.202 3.1-7.386 1.863-11.195zm-45.963-17.938.001.002c0-.001-.001-.001-.001-.002zm20.519 35.554c-1 1.331-1.528 2.957-1.501 4.622l.244 15.461-14.63-5.01c-.788-.27-1.608-.404-2.43-.404-.821 0-1.643.135-2.43.404l-14.63 5.01.244-15.462c.026-1.665-.502-3.291-1.501-4.622l-9.286-12.366 14.78-4.546c1.591-.489 2.975-1.494 3.932-2.856l8.891-12.652 8.891 12.652c.957 1.362 2.34 2.367 3.932 2.856l14.78 4.546z" fill="#ababab" data-original="#000000" style=""/><path d="m208.459 272.565h-.133c-4.125-.041-7.512 3.331-7.527 7.473s3.331 7.512 7.473 7.527h.133.028c4.129 0 7.484-3.34 7.5-7.473.014-4.142-3.331-7.512-7.474-7.527z" fill="#ababab" data-original="#000000" style=""/><path d="m246.853 308.009h-.133c-4.142 0-7.5 3.358-7.5 7.5s3.358 7.5 7.5 7.5h.133c4.142 0 7.5-3.358 7.5-7.5s-3.358-7.5-7.5-7.5z" fill="#ababab" data-original="#000000" style=""/><path d="m235.02 279.736-25.495 25.495c-2.929 2.929-2.929 7.678 0 10.606 1.464 1.464 3.384 2.197 5.303 2.197s3.839-.732 5.303-2.197l25.495-25.495c2.929-2.929 2.929-7.678 0-10.606-2.928-2.929-7.677-2.929-10.606 0z" fill="#ababab" data-original="#000000" style=""/><path d="m394.644 284.84c0-6.769-5.507-12.276-12.276-12.276h-101.566c-6.769 0-12.276 5.507-12.276 12.276v25.893c0 6.769 5.507 12.276 12.276 12.276h101.565c6.769 0 12.276-5.507 12.276-12.276v-25.893zm-15 23.169h-96.117v-20.445h96.117z" fill="#ababab" data-original="#000000" style=""/><path d="m200.932 356.871c0 4.142 3.358 7.5 7.5 7.5h67.594c4.142 0 7.5-3.358 7.5-7.5s-3.358-7.5-7.5-7.5h-67.594c-4.142 0-7.5 3.358-7.5 7.5z" fill="#ababab" data-original="#000000" style=""/><path d="m387.144 382.004h-178.712c-4.142 0-7.5 3.358-7.5 7.5s3.358 7.5 7.5 7.5h178.711c4.142 0 7.5-3.358 7.5-7.5s-3.357-7.5-7.499-7.5z" fill="#ababab" data-original="#000000" style=""/><path d="m387.144 405.086h-178.712c-4.142 0-7.5 3.358-7.5 7.5s3.358 7.5 7.5 7.5h178.711c4.142 0 7.5-3.358 7.5-7.5s-3.357-7.5-7.499-7.5z" fill="#ababab" data-original="#000000" style=""/></g></g></g></g></svg>
