<svg id="color" enable-background="new 0 0 24 24" height="512" viewBox="0 0 24 24" width="512" xmlns="http://www.w3.org/2000/svg"><path d="m12 9-12 5.5 12 5.5 12-5.5z" fill="#2196f3"/><path d="m0 14.5v4l12 5.5v-4z" fill="#64b5f6"/><path d="m12 24v-4l12-5.5v4z" fill="#42a5f5"/><path d="m13.25 14h-2.5c-.689 0-1.25-.561-1.25-1.25v-6h-2.75c-.303 0-.577-.183-.693-.463s-.052-.603.163-.817l5.25-5.25c.293-.293.768-.293 1.061 0l5.25 5.25c.214.214.279.537.163.817s-.39.463-.693.463h-2.751v6c0 .689-.561 1.25-1.25 1.25z" fill="#cfd8dc"/><path d="m9.5 10.146-9.5 4.354 12 5.5v-6h-1.25c-.689 0-1.25-.561-1.25-1.25z" fill="#1d83d4"/><path d="m0 14.5v4l12 5.5v-4z" fill="#579ed6"/><path d="m12 0c-.192 0-.384.073-.53.22l-5.25 5.25c-.215.214-.279.537-.163.817s.39.463.693.463h2.75v3.396 2.604c0 .689.561 1.25 1.25 1.25h1.25z" fill="#b4bcc0"/></svg>