<svg id="Capa_1" enable-background="new 0 0 512 512" height="512" viewBox="0 0 512 512" width="512" xmlns="http://www.w3.org/2000/svg"><g><path d="m328.333 0h-120c-8.284 0-15 6.716-15 15v30c0 41.355 33.645 75 75 75s75-33.645 75-75v-30c0-8.284-6.715-15-15-15z" fill="#26bfa6"/><path d="m328.333 0h-60v120c41.355 0 75-33.645 75-75v-30c0-8.284-6.715-15-15-15z" fill="#149084"/><path d="m268.333 90c-71.131 0-129 57.869-129 129v218c0 8.284 6.716 15 15 15h228c8.284 0 15-6.716 15-15v-218c0-71.131-57.869-129-129-129z" fill="#91e6a9"/><path d="m268.333 90v362h114c8.284 0 15-6.716 15-15v-218c0-71.131-57.869-129-129-129z" fill="#26bfa6"/><path d="m71.841 377v120c0 8.284 6.716 15 15 15h52.493l12.507-10v-134l-12.507-6h-52.493c-8.285 0-15 6.716-15 15z" fill="#7c83e7"/><path d="m431.387 401.453c-5.666-5.666-13.2-8.787-21.213-8.787s-15.547 3.12-21.214 8.787l-50.546 50.547h-61.573s-26.153 0-30 0c-8.284 0-15-6.716-15-15s6.716-15 15-15h30c16.542 0 30-13.458 30-30s-13.458-30-30-30h-137.508v150h211.507c8.013 0 15.547-3.121 21.213-8.787l59.334-59.334c11.697-11.697 11.696-30.729 0-42.426z" fill="#ffd9c0"/><path d="m431.387 401.453c-5.666-5.666-13.2-8.787-21.213-8.787s-15.547 3.12-21.214 8.787l-50.546 50.547h-61.573s-3.693 0-8.507 0v60h82.507c8.013 0 15.547-3.121 21.213-8.787l59.334-59.334c11.696-11.697 11.695-30.729-.001-42.426z" fill="#fbceaf"/><path d="m268.333 422h8.507c16.542 0 30-13.458 30-30s-13.458-30-30-30h-8.507z" fill="#fbceaf"/><path d="m285.181 235.284c-12.864-4.745-24.86-9.907-28.827-11.64-2.023-1.739-2.056-4.038-1.87-5.329.227-1.579 1.398-5.446 7.367-7.243 14.333-4.319 27.102 5.823 27.715 6.32 6.208 5.35 15.584 4.727 21.027-1.431 5.486-6.207 4.903-15.687-1.304-21.173-.645-.571-10.708-9.278-25.956-13.079v-1.709c0-8.284-6.716-15-15-15s-15 6.716-15 15v2.309c-.046.014-.09.023-.136.037-15.381 4.634-26.267 16.783-28.409 31.706-2.016 14.041 4.073 27.549 15.889 35.252.663.432 1.358.811 2.081 1.133.621.277 15.401 6.856 32.041 12.994 3.359 1.239 14.222 5.82 12.985 12.749-.95 5.319-7.599 10.821-17.083 10.821-10.18 0-19.96-4.086-26.163-10.93-5.563-6.139-15.05-6.605-21.188-1.041-6.138 5.563-6.604 15.049-1.041 21.188 8.177 9.022 19 15.411 31.024 18.557v2.225c0 8.284 6.716 15 15 15s15-6.716 15-15v-1.511c17.483-4.285 30.994-17.295 33.983-34.036 2.78-15.564-4.203-35.866-32.135-46.169z" fill="#f0f7ff"/><g fill="#dfe7f4"><path d="m268.333 210.018c11.501-.365 20.714 6.952 21.232 7.373 6.208 5.35 15.584 4.727 21.027-1.431 5.486-6.207 4.903-15.687-1.304-21.173-.645-.571-10.708-9.278-25.956-13.079v-1.708c0-8.284-6.716-15-15-15v45.018z"/><path d="m285.181 235.284c-6.063-2.236-11.92-4.561-16.847-6.58v32.287c2.105.811 4.268 1.628 6.465 2.439 3.359 1.239 14.222 5.82 12.985 12.749-.95 5.319-7.599 10.821-17.083 10.821-.793 0-1.581-.033-2.367-.082v45.082c8.284 0 15-6.716 15-15v-1.511c17.483-4.285 30.994-17.295 33.983-34.036 2.779-15.564-4.204-35.866-32.136-46.169z"/></g></g></svg>