<?xml version="1.0"?>
<svg xmlns="http://www.w3.org/2000/svg" xmlns:xlink="http://www.w3.org/1999/xlink" xmlns:svgjs="http://svgjs.com/svgjs" version="1.1" width="512" height="512" x="0" y="0" viewBox="0 0 16.717 16.717" style="enable-background:new 0 0 512 512" xml:space="preserve" class=""><g>
<g xmlns="http://www.w3.org/2000/svg">
	<path style="" d="M8.358,16.717c4.616,0,8.358-3.742,8.358-8.359C16.716,3.742,12.974,0,8.358,0   S0.001,3.742,0.001,8.359C0.001,12.975,3.742,16.717,8.358,16.717z M2.676,7.076c0-0.321,0.248-0.313,0.248-0.313   c1.051,0,3.805,0,5.22,0c0.459,0,0.759,0,0.759,0s0-1.101,0-1.791c-0.002-0.689,0.516-0.17,0.516-0.17s3.888,2.929,4.294,3.335   c0.297,0.295-0.033,0.579-0.033,0.579l-4.159,3.441c0,0-0.496,0.522-0.496-0.045c0-0.568,0-1.939,0-1.939s-0.331,0.001-0.844,0   c-1.463,0-4.126,0.001-5.208,0c0,0-0.296,0.076-0.296-0.369C2.676,9.356,2.676,7.394,2.676,7.076z" fill="#4198f7" data-original="#030104" class=""/>
</g>
<g xmlns="http://www.w3.org/2000/svg">
</g>
<g xmlns="http://www.w3.org/2000/svg">
</g>
<g xmlns="http://www.w3.org/2000/svg">
</g>
<g xmlns="http://www.w3.org/2000/svg">
</g>
<g xmlns="http://www.w3.org/2000/svg">
</g>
<g xmlns="http://www.w3.org/2000/svg">
</g>
<g xmlns="http://www.w3.org/2000/svg">
</g>
<g xmlns="http://www.w3.org/2000/svg">
</g>
<g xmlns="http://www.w3.org/2000/svg">
</g>
<g xmlns="http://www.w3.org/2000/svg">
</g>
<g xmlns="http://www.w3.org/2000/svg">
</g>
<g xmlns="http://www.w3.org/2000/svg">
</g>
<g xmlns="http://www.w3.org/2000/svg">
</g>
<g xmlns="http://www.w3.org/2000/svg">
</g>
<g xmlns="http://www.w3.org/2000/svg">
</g>
</g></svg>
