<?xml version="1.0"?>
<svg xmlns="http://www.w3.org/2000/svg" xmlns:xlink="http://www.w3.org/1999/xlink" xmlns:svgjs="http://svgjs.com/svgjs" version="1.1" width="512" height="512" x="0" y="0" viewBox="0 0 512.001 512.001" style="enable-background:new 0 0 512 512" xml:space="preserve" class=""><g>
<g xmlns="http://www.w3.org/2000/svg">
	<g>
		<path d="M385.968,46.993c-5.52,0-10,4.48-10,10s4.48,10,10,10c5.52,0,10-4.48,10-10S391.49,46.993,385.968,46.993z" fill="#6b7280" data-original="#000000" style="" class=""/>
	</g>
</g>
<g xmlns="http://www.w3.org/2000/svg">
	<g>
		<path d="M395.123,7.999c-62.714-20.11-115.125,2.394-139.154,16.261C231.942,10.39,179.539-12.115,116.81,7.999    C33.738,34.646-5.209,155.948,61.398,253.824c31.557,46.352,35.771,82.105,40.232,119.958c3.266,27.709,6.643,56.362,20.749,89.86    c9.486,22.52,22.895,48.281,42.734,48.279c0.179,0,0.362-0.002,0.542-0.006c15.953-0.377,28.809-16.199,41.681-51.304    c6.557-17.895,10.758-39.011,14.821-59.43c7.313-36.754,14.876-74.759,33.883-74.892c0.034,0,0.067,0,0.101,0    c18.799,0,26.345,38.018,33.643,74.783c4.065,20.484,8.269,41.667,14.825,59.541c12.888,35.159,25.743,51.006,41.681,51.382    c0.181,0.004,0.36,0.006,0.541,0.006c19.799,0,33.226-25.802,42.726-48.36c13.48-32.011,17.011-60.593,20.426-88.234    c4.808-38.917,9.349-75.675,40.629-121.689C517.999,154.578,476.801,34.182,395.123,7.999z M434.07,242.474    c-33.996,50.01-39.05,90.919-43.938,130.481c-3.397,27.497-6.606,53.469-19.009,82.922C356.407,490.816,347.873,492,346.794,492    c-0.012,0-0.022,0-0.032,0c-0.385-0.009-9.586-0.655-23.375-38.274c-6.02-16.412-10.069-36.816-13.985-56.548    c-4.396-22.15-8.548-43.073-15.392-59.404c-8.757-20.895-21.485-31.487-37.836-31.487c-0.091,0-0.184,0-0.275,0.001    c-16.419,0.115-29.195,10.789-37.97,31.727c-6.841,16.322-10.992,37.181-15.385,59.263c-3.915,19.672-7.962,40.015-13.984,56.45    c-13.764,37.538-22.987,38.184-23.373,38.193c-0.896,0.016-9.53-0.804-24.372-36.041c-13.007-30.889-16.073-56.899-19.318-84.438    c-4.547-38.579-9.249-78.471-43.561-128.87C17.891,154.341,54.085,49.127,122.921,27.046    c59.86-19.195,109.263,5.74,127.724,17.353c3.253,2.047,7.393,2.048,10.646,0.001c18.468-11.61,67.883-36.543,127.727-17.353    C459.217,49.548,492.901,155.924,434.07,242.474z" fill="#6b7280" data-original="#000000" style="" class=""/>
	</g>
</g>
<g xmlns="http://www.w3.org/2000/svg">
	<g>
		<path d="M437.074,103.527c-3.248-9.429-7.553-18.105-12.794-25.788c-3.113-4.564-9.334-5.739-13.896-2.626    c-4.563,3.112-5.738,9.333-2.625,13.896c4.237,6.211,7.738,13.288,10.406,21.032c9.965,28.924,7.365,62.673-7.134,92.594    c-2.409,4.97-0.332,10.951,4.638,13.36c4.971,2.409,10.952,0.332,13.36-4.638C445.817,176.714,448.75,137.411,437.074,103.527z" fill="#6b7280" data-original="#000000" style="" class=""/>
	</g>
</g>
<g xmlns="http://www.w3.org/2000/svg">
	<g>
		<path d="M219.628,136.797l-40.257-13.419l-13.419-40.257c-1.361-4.083-5.183-6.838-9.487-6.838s-8.125,2.754-9.487,6.838    l-13.419,40.257l-40.257,13.419c-4.083,1.361-6.838,5.183-6.838,9.487s2.754,8.125,6.838,9.487l40.257,13.419l13.419,40.257    c1.361,4.083,5.183,6.838,9.487,6.838s8.125-2.754,9.487-6.838l13.419-40.257l40.257-13.419c4.083-1.361,6.838-5.183,6.838-9.487    S223.712,138.159,219.628,136.797z M168.303,151.797c-2.986,0.995-5.33,3.338-6.325,6.325l-5.513,16.54l-5.513-16.54    c-0.995-2.986-3.338-5.33-6.325-6.325l-16.54-5.513l16.54-5.513c2.986-0.995,5.33-3.338,6.325-6.325l5.513-16.54l5.513,16.54    c0.995,2.986,3.338,5.33,6.325,6.325l16.54,5.513L168.303,151.797z" fill="#6b7280" data-original="#000000" style="" class=""/>
	</g>
</g>
<g xmlns="http://www.w3.org/2000/svg">
</g>
<g xmlns="http://www.w3.org/2000/svg">
</g>
<g xmlns="http://www.w3.org/2000/svg">
</g>
<g xmlns="http://www.w3.org/2000/svg">
</g>
<g xmlns="http://www.w3.org/2000/svg">
</g>
<g xmlns="http://www.w3.org/2000/svg">
</g>
<g xmlns="http://www.w3.org/2000/svg">
</g>
<g xmlns="http://www.w3.org/2000/svg">
</g>
<g xmlns="http://www.w3.org/2000/svg">
</g>
<g xmlns="http://www.w3.org/2000/svg">
</g>
<g xmlns="http://www.w3.org/2000/svg">
</g>
<g xmlns="http://www.w3.org/2000/svg">
</g>
<g xmlns="http://www.w3.org/2000/svg">
</g>
<g xmlns="http://www.w3.org/2000/svg">
</g>
<g xmlns="http://www.w3.org/2000/svg">
</g>
</g></svg>
