<?xml version="1.0"?>
<svg xmlns="http://www.w3.org/2000/svg" xmlns:xlink="http://www.w3.org/1999/xlink" xmlns:svgjs="http://svgjs.com/svgjs" version="1.1" width="512" height="512" x="0" y="0" viewBox="0 0 36 36" style="enable-background:new 0 0 512 512" xml:space="preserve" class=""><g><path xmlns="http://www.w3.org/2000/svg" d="m27.417 3.914c-6.915.129-11.732-3.365-15.064-3.302s-10.296 2.109-10.009 17.44 9.744 17.404 13.41 17.336c17.163-.321 23.911-31.703 11.663-31.474z" fill="#efefef" data-original="#efefef" style="" class=""/><path xmlns="http://www.w3.org/2000/svg" d="m29.5 23.5v2c0 .55-.45 1-1 1h-21c-.55 0-1-.45-1-1v-2z" fill="#4198f7" data-original="#2fdf84" style="" class=""/><path xmlns="http://www.w3.org/2000/svg" d="m29.5 11.5v12h-23v-12c0-.55.45-1 1-1h21c.55 0 1 .45 1 1z" fill="#f3f3f1" data-original="#f3f3f1" style=""/><path xmlns="http://www.w3.org/2000/svg" d="m21.768 16.647.228-1.914c.028-.232.393-1.932.675-3.229.219-1.005.329-2.029.329-3.058 0-1.075-.871-1.946-1.946-1.946-.362 0-.718.098-1.029.285-1.247.748-2.804.748-4.051 0-.31-.187-.666-.285-1.028-.285-1.075 0-1.946.871-1.946 1.946 0 1.028.11 2.052.329 3.057.282 1.297.648 2.998.675 3.23l.228 1.914c.058.485.513.853 1.055.853.51 0 .948-.327 1.042-.779l.586-3.31c.097-.47.553-.811 1.085-.811.532 0 .988.341 1.086.811l.586 3.31c.094.451.532.779 1.042.779.542 0 .996-.368 1.054-.853z" fill="#4198f7" data-original="#2fdf84" style="" class=""/><path xmlns="http://www.w3.org/2000/svg" d="m20 26.5s0 1.5 1.5 3h-7c1.5-1.5 1.48-3 1.48-3z" fill="#4198f7" data-original="#2fdf84" style="" class=""/><g xmlns="http://www.w3.org/2000/svg" fill="#00b871"><path d="m16.29 16.86c-.16.38-.55.64-1 .64-.55 0-1-.37-1.06-.85l-.23-1.92c-.02-.23-.39-1.93-.67-3.23-.22-1-.33-2.03-.33-3.05 0-.54.22-1.03.57-1.38s.84-.57 1.38-.57c.36 0 .7.1 1.01.27-.15.08-.28.19-.39.3-.35.35-.57.84-.57 1.38 0 1.02.11 2.05.33 3.05.28 1.3.65 3 .67 3.23l.23 1.92c.01.07.03.15.06.21z" fill="#4198f7" data-original="#00b871" style="" class=""/><path d="m9.5 26.5h-2c-.55 0-1-.45-1-1v-2h2v2c0 .55.45 1 1 1z" fill="#4198f7" data-original="#00b871" style="" class=""/><path d="m17.98 26.5c0 .08-.02 1.54-1.48 3h-2c1.46-1.46 1.48-2.92 1.48-3z" fill="#4198f7" data-original="#00b871" style="" class=""/></g><path xmlns="http://www.w3.org/2000/svg" d="m9.5 10.5c-.55 0-1 .45-1 1v12h-2v-12c0-.55.45-1 1-1z" fill="#d5dbe1" data-original="#d5dbe1" style=""/><path xmlns="http://www.w3.org/2000/svg" d="m28.5 27.25h-21c-.965 0-1.75-.785-1.75-1.75v-14c0-.965.785-1.75 1.75-1.75h2v1.5h-2c-.138 0-.25.112-.25.25v14c0 .138.112.25.25.25h21c.138 0 .25-.112.25-.25v-14c0-.138-.112-.25-.25-.25h-2v-1.5h2c.965 0 1.75.785 1.75 1.75v14c0 .965-.785 1.75-1.75 1.75z" fill="#000000" data-original="#000000" style="" class=""/><path xmlns="http://www.w3.org/2000/svg" d="m21.5 30.25h-7c-.303 0-.577-.183-.693-.463s-.052-.603.163-.817c1.234-1.233 1.26-2.418 1.26-2.468.004-.412.339-.752.75-.752h4.02c.412 0 .746.332.75.743.001.063.05 1.246 1.28 2.477.214.215.279.537.163.817s-.39.463-.693.463zm-5.474-1.5h3.945c-.339-.575-.519-1.102-.613-1.5h-2.728c-.093.4-.269.926-.604 1.5z" fill="#000000" data-original="#000000" style="" class=""/><path xmlns="http://www.w3.org/2000/svg" d="m6.5 22.75h23v1.5h-23z" fill="#000000" data-original="#000000" style="" class=""/><path xmlns="http://www.w3.org/2000/svg" d="m20.713 18.25c-.863 0-1.61-.578-1.777-1.375l-.59-3.333c-.017-.084-.154-.192-.346-.192s-.329.108-.351.214l-.581 3.289c-.171.819-.918 1.397-1.781 1.397-.923 0-1.697-.65-1.799-1.514l-.228-1.914c-.018-.137-.202-1.04-.664-3.16-.229-1.056-.346-2.139-.346-3.217 0-1.486 1.209-2.695 2.696-2.695.498 0 .987.136 1.415.392 1.012.607 2.268.607 3.279 0 .428-.256.917-.392 1.415-.392 1.486 0 2.696 1.209 2.696 2.695 0 1.079-.116 2.162-.346 3.218-.582 2.673-.655 3.095-.664 3.16l-.228 1.913c-.103.864-.876 1.514-1.8 1.514zm-2.713-6.4c.885 0 1.65.593 1.82 1.409l.59 3.332c.014.064.137.159.304.159.172 0 .299-.099.31-.191l.228-1.914c.011-.092.037-.311.687-3.3.207-.952.312-1.927.312-2.898 0-.659-.537-1.196-1.196-1.196-.226 0-.449.062-.643.179-1.487.893-3.335.893-4.822 0-.194-.117-.417-.179-.643-.179-.659 0-1.196.536-1.196 1.195 0 .972.105 1.946.312 2.898.649 2.981.678 3.222.687 3.301l.228 1.914c.011.093.138.191.31.191.167 0 .29-.095.308-.182l.581-3.288c.173-.838.938-1.43 1.823-1.43z" fill="#000000" data-original="#000000" style="" class=""/><path xmlns="http://www.w3.org/2000/svg" d="m30.864 5.47c-.827 0-1.5-.673-1.5-1.5s.673-1.5 1.5-1.5 1.5.673 1.5 1.5-.673 1.5-1.5 1.5zm0-2c-.276 0-.5.225-.5.5s.224.5.5.5.5-.225.5-.5-.224-.5-.5-.5z" fill="#a4afc1" data-original="#a4afc1" style=""/></g></svg>
